{
    "asset" : {
        "generator" : "Khronos glTF Blender I/O v1.4.40",
        "version" : "2.0"
    },
    "extensionsUsed" : [
        "KHR_lights_punctual"
    ],
    "extensionsRequired" : [
        "KHR_lights_punctual"
    ],
    "extensions" : {
        "KHR_lights_punctual" : {
            "lights" : [
                {
                    "color" : [
                        1,
                        1,
                        1
                    ],
                    "intensity" : 1,
                    "type" : "directional",
                    "name" : "Sun"
                }
            ]
        }
    },
    "scene" : 0,
    "scenes" : [
        {
            "name" : "Scene",
            "nodes" : [
                1,
                3,
                4,
                5
            ]
        }
    ],
    "nodes" : [
        {
            "extensions" : {
                "KHR_lights_punctual" : {
                    "light" : 0
                }
            },
            "name" : "Sun_Orientation",
            "rotation" : [
                -0.7071067690849304,
                0,
                0,
                0.7071067690849304
            ]
        },
        {
            "children" : [
                0
            ],
            "name" : "Sun",
            "translation" : [
                -0.0003865361213684082,
                7.670787334442139,
                0.0027279332280158997
            ]
        },
        {
            "mesh" : 0,
            "name" : "Cylinder.001",
            "translation" : [
                0.0003865361213684082,
                -1.6360660791397095,
                -0.002727806568145752
            ]
        },
        {
            "children" : [
                2
            ],
            "mesh" : 1,
            "name" : "Cylinder.003",
            "rotation" : [
                -0.32974013686180115,
                0,
                0,
                0.9440717101097107
            ],
            "translation" : [
                -0.0003865361213684082,
                1.63606595993042,
                0.0027279332280158997
            ]
        },
        {
            "name" : "Cone"
        },
        {
            "name" : "Camera",
            "rotation" : [
                0.32012462615966797,
                -0.6434378623962402,
                0.5410047769546509,
                0.436831533908844
            ],
            "translation" : [
                -9.22628402709961,
                2.1156539916992188,
                -4.4223551750183105
            ]
        }
    ],
    "animations" : [
        {
            "channels" : [
                {
                    "sampler" : 0,
                    "target" : {
                        "node" : 1,
                        "path" : "translation"
                    }
                },
                {
                    "sampler" : 1,
                    "target" : {
                        "node" : 1,
                        "path" : "rotation"
                    }
                },
                {
                    "sampler" : 2,
                    "target" : {
                        "node" : 1,
                        "path" : "scale"
                    }
                }
            ],
            "name" : "SunAction",
            "samplers" : [
                {
                    "input" : 12,
                    "interpolation" : "STEP",
                    "output" : 13
                },
                {
                    "input" : 12,
                    "interpolation" : "STEP",
                    "output" : 14
                },
                {
                    "input" : 12,
                    "interpolation" : "STEP",
                    "output" : 15
                }
            ]
        },
        {
            "channels" : [
                {
                    "sampler" : 0,
                    "target" : {
                        "node" : 3,
                        "path" : "rotation"
                    }
                }
            ],
            "name" : "Cylinder.003Action",
            "samplers" : [
                {
                    "input" : 16,
                    "interpolation" : "LINEAR",
                    "output" : 17
                }
            ]
        }
    ],
    "materials" : [
        {
            "doubleSided" : true,
            "name" : "GOLDEN",
            "pbrMetallicRoughness" : {}
        },
        {
            "doubleSided" : true,
            "name" : "SPLIT",
            "pbrMetallicRoughness" : {}
        }
    ],
    "meshes" : [
        {
            "name" : "Cylinder.002",
            "primitives" : [
                {
                    "attributes" : {
                        "POSITION" : 0,
                        "NORMAL" : 1,
                        "TEXCOORD_0" : 2
                    },
                    "indices" : 3,
                    "material" : 0
                }
            ]
        },
        {
            "name" : "Cylinder.006",
            "primitives" : [
                {
                    "attributes" : {
                        "POSITION" : 4,
                        "NORMAL" : 5,
                        "TEXCOORD_0" : 6
                    },
                    "indices" : 7,
                    "material" : 1
                },
                {
                    "attributes" : {
                        "POSITION" : 8,
                        "NORMAL" : 9,
                        "TEXCOORD_0" : 10
                    },
                    "indices" : 11,
                    "material" : 0
                }
            ]
        }
    ],
    "accessors" : [
        {
            "bufferView" : 0,
            "componentType" : 5126,
            "count" : 96,
            "max" : [
                0.22600436210632324,
                1.115030288696289,
                0.9063325524330139
            ],
            "min" : [
                -0.2380179464817047,
                -0.6726691722869873,
                -0.0395989753305912
            ],
            "type" : "VEC3"
        },
        {
            "bufferView" : 1,
            "componentType" : 5126,
            "count" : 96,
            "type" : "VEC3"
        },
        {
            "bufferView" : 2,
            "componentType" : 5126,
            "count" : 96,
            "type" : "VEC2"
        },
        {
            "bufferView" : 3,
            "componentType" : 5123,
            "count" : 522,
            "type" : "SCALAR"
        },
        {
            "bufferView" : 4,
            "componentType" : 5126,
            "count" : 4633,
            "max" : [
                1.1957683563232422,
                -1.0694559812545776,
                1.1926538944244385
            ],
            "min" : [
                -1.194995403289795,
                -2.5080695152282715,
                -1.1981098651885986
            ],
            "type" : "VEC3"
        },
        {
            "bufferView" : 5,
            "componentType" : 5126,
            "count" : 4633,
            "type" : "VEC3"
        },
        {
            "bufferView" : 6,
            "componentType" : 5126,
            "count" : 4633,
            "type" : "VEC2"
        },
        {
            "bufferView" : 7,
            "componentType" : 5123,
            "count" : 24618,
            "type" : "SCALAR"
        },
        {
            "bufferView" : 8,
            "componentType" : 5126,
            "count" : 50909,
            "max" : [
                1.2665982246398926,
                0.21286368370056152,
                1.2634837627410889
            ],
            "min" : [
                -1.2658252716064453,
                -2.7484612464904785,
                -1.2689396142959595
            ],
            "type" : "VEC3"
        },
        {
            "bufferView" : 9,
            "componentType" : 5126,
            "count" : 50909,
            "type" : "VEC3"
        },
        {
            "bufferView" : 10,
            "componentType" : 5126,
            "count" : 50909,
            "type" : "VEC2"
        },
        {
            "bufferView" : 11,
            "componentType" : 5123,
            "count" : 295488,
            "type" : "SCALAR"
        },
        {
            "bufferView" : 12,
            "componentType" : 5126,
            "count" : 1,
            "max" : [
                0
            ],
            "min" : [
                0
            ],
            "type" : "SCALAR"
        },
        {
            "bufferView" : 13,
            "componentType" : 5126,
            "count" : 1,
            "type" : "VEC3"
        },
        {
            "bufferView" : 14,
            "componentType" : 5126,
            "count" : 1,
            "type" : "VEC4"
        },
        {
            "bufferView" : 15,
            "componentType" : 5126,
            "count" : 1,
            "type" : "VEC3"
        },
        {
            "bufferView" : 16,
            "componentType" : 5126,
            "count" : 61,
            "max" : [
                2.5
            ],
            "min" : [
                0
            ],
            "type" : "SCALAR"
        },
        {
            "bufferView" : 17,
            "componentType" : 5126,
            "count" : 61,
            "type" : "VEC4"
        }
    ],
    "bufferViews" : [
        {
            "buffer" : 0,
            "byteLength" : 1152,
            "byteOffset" : 0
        },
        {
            "buffer" : 0,
            "byteLength" : 1152,
            "byteOffset" : 1152
        },
        {
            "buffer" : 0,
            "byteLength" : 768,
            "byteOffset" : 2304
        },
        {
            "buffer" : 0,
            "byteLength" : 1044,
            "byteOffset" : 3072
        },
        {
            "buffer" : 0,
            "byteLength" : 55596,
            "byteOffset" : 4116
        },
        {
            "buffer" : 0,
            "byteLength" : 55596,
            "byteOffset" : 59712
        },
        {
            "buffer" : 0,
            "byteLength" : 37064,
            "byteOffset" : 115308
        },
        {
            "buffer" : 0,
            "byteLength" : 49236,
            "byteOffset" : 152372
        },
        {
            "buffer" : 0,
            "byteLength" : 610908,
            "byteOffset" : 201608
        },
        {
            "buffer" : 0,
            "byteLength" : 610908,
            "byteOffset" : 812516
        },
        {
            "buffer" : 0,
            "byteLength" : 407272,
            "byteOffset" : 1423424
        },
        {
            "buffer" : 0,
            "byteLength" : 590976,
            "byteOffset" : 1830696
        },
        {
            "buffer" : 0,
            "byteLength" : 4,
            "byteOffset" : 2421672
        },
        {
            "buffer" : 0,
            "byteLength" : 12,
            "byteOffset" : 2421676
        },
        {
            "buffer" : 0,
            "byteLength" : 16,
            "byteOffset" : 2421688
        },
        {
            "buffer" : 0,
            "byteLength" : 12,
            "byteOffset" : 2421704
        },
        {
            "buffer" : 0,
            "byteLength" : 244,
            "byteOffset" : 2421716
        },
        {
            "buffer" : 0,
            "byteLength" : 976,
            "byteOffset" : 2421960
        }
    ],
    "buffers" : [
        {
            "byteLength" : 2422936,
            "uri" : "data:application/octet-stream;base64,"
        }
    ]
}
